<svg width="16" height="16" viewBox="0 0 16 16" fill="none" xmlns="http://www.w3.org/2000/svg">
<path d="M10 4.66667C10.3536 4.66667 10.6928 4.80714 10.9428 5.05719C11.1929 5.30724 11.3333 5.64638 11.3333 6M10 2C11.0609 2 12.0783 2.42143 12.8284 3.17157C13.5786 3.92172 14 4.93913 14 6M3.33333 2.66667H6L7.33333 6L5.66667 7C6.38064 8.44769 7.55231 9.61936 9 10.3333L10 8.66667L13.3333 10V12.6667C13.3333 13.0203 13.1929 13.3594 12.9428 13.6095C12.6928 13.8595 12.3536 14 12 14C9.39951 13.842 6.94677 12.7377 5.10455 10.8954C3.26234 9.05323 2.15803 6.60049 2 4C2 3.64638 2.14048 3.30724 2.39052 3.05719C2.64057 2.80714 2.97971 2.66667 3.33333 2.66667Z" stroke="inherit" stroke-width="1.5" stroke-linecap="round" stroke-linejoin="round"/>
</svg>
