<svg width="16" height="16" viewBox="0 0 16 16" fill="none" xmlns="http://www.w3.org/2000/svg">
<path d="M8.33333 4.33333C8.33333 4.68696 8.47381 5.02609 8.72386 5.27614C8.97391 5.52619 9.31304 5.66667 9.66667 5.66667C10.0203 5.66667 10.3594 5.52619 10.6095 5.27614C10.8595 5.02609 11 4.68696 11 4.33333M8.33333 4.33333C8.33333 3.97971 8.47381 3.64057 8.72386 3.39052C8.97391 3.14048 9.31304 3 9.66667 3C10.0203 3 10.3594 3.14048 10.6095 3.39052C10.8595 3.64057 11 3.97971 11 4.33333M8.33333 4.33333H3M11 4.33333H13.6667M4.33333 8.33333C4.33333 8.68696 4.47381 9.02609 4.72386 9.27614C4.97391 9.52619 5.31304 9.66667 5.66667 9.66667C6.02029 9.66667 6.35943 9.52619 6.60948 9.27614C6.85952 9.02609 7 8.68696 7 8.33333M4.33333 8.33333C4.33333 7.97971 4.47381 7.64057 4.72386 7.39052C4.97391 7.14048 5.31304 7 5.66667 7C6.02029 7 6.35943 7.14048 6.60948 7.39052C6.85952 7.64057 7 7.97971 7 8.33333M4.33333 8.33333H3M7 8.33333H13.6667M10.3333 12.3333C10.3333 12.687 10.4738 13.0261 10.7239 13.2761C10.9739 13.5262 11.313 13.6667 11.6667 13.6667C12.0203 13.6667 12.3594 13.5262 12.6095 13.2761C12.8595 13.0261 13 12.687 13 12.3333M10.3333 12.3333C10.3333 11.9797 10.4738 11.6406 10.7239 11.3905C10.9739 11.1405 11.313 11 11.6667 11C12.0203 11 12.3594 11.1405 12.6095 11.3905C12.8595 11.6406 13 11.9797 13 12.3333M10.3333 12.3333H3M13 12.3333H13.6667" stroke="inherit" stroke-width="1.5" stroke-linecap="round" stroke-linejoin="round"/>
</svg>
